<svg xmlns="http://www.w3.org/2000/svg" version="1.2" viewBox="0 0 250 375">
  <path fill="#374151" d="M-275-209c0-2.2 1.8-4 4-4h792c2.2 0 4 1.8 4 4v792c0 2.2-1.8 4-4 4h-792c-2.2 0-4-1.8-4-4z"/>
  <path fill="#6b7280" fill-rule="evenodd" d="M160.7 161.7c6.8 0 12.3-5.5 12.3-12.4 0-6.8-5.5-12.3-12.3-12.3-6.7 0-12.2 5.5-12.2 12.3 0 6.9 5.5 12.4 12.2 12.4zm1.5 75.2 38.2-.4c.8 0 1.3-.9.8-1.6l-39.4-55.5c-.5-.6-1.3-.6-1.7 0l-17 27.5c-15.8-24.4-34.8-53.2-39-59.5-.4-.7-1.3-.6-1.7 0L47.9 235c-.4.6 0 1.5.8 1.5h78.1z"/>
</svg>